<mxfile host="app.diagrams.net" modified="2023-09-27T21:23:48.698Z" agent="Mozilla/5.0 (Windows NT 6.1; Win64; x64) AppleWebKit/537.36 (KHTML, like Gecko) Chrome/102.0.0.0 Safari/537.36" version="21.8.2" etag="uIt1gplXDxaWfn5kLn5Y" type="github">
  <diagram name="PÃ¡gina-1" id="UW1VlqwGxSZPQ3qC3E5H">
    <mxGraphModel>
      <root>
        <mxCell id="0" />
        <mxCell id="1" parent="0" />
      </root>
    </mxGraphModel>
  </diagram>
</mxfile>
